<?xml version="1.0" encoding="UTF-8"?>
<svg id="Calque_1" data-name="Calque 1" xmlns="http://www.w3.org/2000/svg" viewBox="0 0 24 24">
  <defs>
    <style>
      .cls-1 {
        fill: #424242;
      }

      .cls-1, .cls-2, .cls-3 {
        stroke-width: 0px;
      }

      .cls-2 {
        fill: #010101;
      }

      .cls-3 {
        fill: #fff;
      }
    </style>
  </defs>
  <path class="cls-1" d="M12,0c6.63,0,12,5.37,12,12s-5.37,12-12,12S0,18.63,0,12,5.37,0,12,0"/>
  <path class="cls-2" d="M17.25,4.44c-1.22.04-2.28.72-3.07,1.64-.88,1.02-1.46,2.23-1.88,3.46-.75-.61-1.33-1.41-2.54-1.76-.97-.3-2.02-.11-2.81.51-.41.32-.71.76-.86,1.25-.36,1.18.38,2.23.72,2.6l.74.79c.15.15.52.56.34,1.14-.19.63-.95,1.04-1.73.8-.35-.11-.85-.37-.73-.73.05-.15.15-.26.21-.39.05-.11.08-.19.09-.24.14-.47-.05-1.07-.55-1.22-.47-.14-.94-.03-1.12.57-.21.68.12,1.91,1.86,2.45,2.04.63,3.77-.48,4.01-1.93.15-.91-.26-1.58-1.01-2.45l-.61-.68c-.37-.37-.5-1-.11-1.48.32-.41.78-.58,1.54-.38,1.1.3,1.59,1.06,2.41,1.68-.34,1.11-.56,2.22-.76,3.22l-.12.75c-.59,3.07-1.03,4.76-2.19,5.73-.23.17-.57.42-1.07.43-.27,0-.35-.18-.36-.26,0-.18.15-.27.26-.35.15-.08.39-.22.37-.67-.02-.53-.46-.99-1.09-.97-.48.02-1.2.47-1.18,1.29.03.85.82,1.49,2.01,1.44.64-.02,2.06-.28,3.46-1.95,1.63-1.91,2.09-4.1,2.43-5.71l.38-2.12c.21.02.44.04.69.05,2.03.04,3.05-1.01,3.06-1.78.01-.46-.3-.92-.74-.91-.39,0-.72.28-.81.65-.09.43.65.81.07,1.19-.41.27-1.15.45-2.18.3l.19-1.04c.39-1.98.86-4.41,2.66-4.47.13,0,.61,0,.62.32,0,.11-.02.13-.15.38-.11.16-.17.34-.17.54.02.5.4.84.96.82.74-.02.95-.75.94-1.12-.03-.87-.95-1.42-2.17-1.39Z"/>
  <path class="cls-3" d="M17.26,4.44c-1.22.04-2.28.72-3.07,1.64-.88,1.02-1.46,2.23-1.88,3.46-.75-.61-1.33-1.41-2.54-1.76-.97-.3-2.02-.11-2.81.51-.41.32-.71.76-.86,1.25-.36,1.18.38,2.23.72,2.6l.74.79c.15.15.52.56.34,1.14-.19.63-.95,1.04-1.73.8-.35-.11-.85-.37-.73-.73.05-.15.15-.26.21-.39.05-.11.08-.19.09-.24.14-.47-.05-1.07-.55-1.22-.47-.14-.94-.03-1.12.57-.21.68.12,1.91,1.86,2.45,2.04.63,3.77-.48,4.01-1.93.15-.91-.26-1.58-1.01-2.45l-.61-.68c-.37-.37-.5-1-.11-1.48.32-.41.78-.58,1.54-.38,1.1.3,1.59,1.06,2.41,1.68-.34,1.11-.56,2.22-.76,3.22l-.12.75c-.59,3.07-1.03,4.76-2.19,5.73-.23.17-.57.42-1.07.43-.27,0-.35-.18-.36-.26,0-.18.15-.27.26-.35.15-.08.39-.22.37-.67-.02-.53-.46-.99-1.09-.97-.48.02-1.2.47-1.18,1.29.03.85.82,1.49,2.01,1.44.64-.02,2.06-.28,3.46-1.95,1.63-1.91,2.09-4.1,2.43-5.71l.38-2.12c.21.02.44.04.69.05,2.03.04,3.05-1.01,3.06-1.78.01-.46-.3-.92-.74-.91-.39,0-.72.28-.81.65-.09.43.65.81.07,1.19-.41.27-1.15.45-2.18.3l.19-1.04c.39-1.98.86-4.41,2.66-4.47.13,0,.61,0,.62.32,0,.11-.02.13-.15.38-.11.16-.17.34-.17.54.02.5.4.84.96.82.74-.02.95-.75.94-1.12-.03-.87-.95-1.42-2.17-1.39Z"/>
</svg>